<?xml version="1.0" encoding="utf-8"?>
<!-- Generator: Adobe Illustrator 17.0.0, SVG Export Plug-In . SVG Version: 6.00 Build 0)  -->
<!DOCTYPE svg PUBLIC "-//W3C//DTD SVG 1.1//EN" "http://www.w3.org/Graphics/SVG/1.1/DTD/svg11.dtd">
<svg version="1.1" id="Layer_1" xmlns="http://www.w3.org/2000/svg" xmlns:xlink="http://www.w3.org/1999/xlink" x="0px" y="0px"
	 width="512px" height="512px" viewBox="0 0 512 512" enable-background="new 0 0 512 512" xml:space="preserve">
<g>
	
		<linearGradient id="SVGID_1_" gradientUnits="userSpaceOnUse" x1="-1362.0587" y1="399.342" x2="-1795.916" y2="-117.7089" gradientTransform="matrix(1 0 0 -1 -50 373)">
		<stop  offset="0" style="stop-color:#C3E7F9"/>
		<stop  offset="0.2909" style="stop-color:#4EC3F0"/>
		<stop  offset="0.9636" style="stop-color:#156CB4"/>
	</linearGradient>
	<path fill="url(#SVGID_1_)" d="M-1405.983-11.952c16.37,0,29.744,12.919,29.744,28.705v430.861
		c0,15.786-13.374,28.705-29.744,28.705h-446.032c-16.343,0-29.718-12.919-29.718-28.705V16.753
		c0-15.786,13.374-28.705,29.718-28.705H-1405.983z"/>
	<path id="Twitter_3_" fill="#3388C6" d="M-1568.597,306.662h-56.878c-7.909,0-14.631-2.766-20.151-8.324
		c-5.552-5.561-8.295-12.283-8.295-20.233v-20.239h81.044c7.311,0,13.604-2.632,18.837-7.848c5.227-5.259,7.854-11.546,7.854-18.865
		c0-7.343-2.627-13.624-7.869-18.866c-5.247-5.23-11.56-7.854-18.906-7.854h-80.959v-62.895c0-7.915-2.821-14.689-8.431-20.334
		c-5.579-5.654-12.324-8.489-20.169-8.489c-8.057,0-14.915,2.792-20.497,8.324c-5.598,5.546-8.394,12.379-8.394,20.526v136.561
		c0,23.753,8.394,44.044,25.196,60.889c16.814,16.869,37.078,25.286,60.77,25.286h56.867c7.895,0,14.672-2.839,20.308-8.493
		c5.639-5.631,8.458-12.413,8.458-20.322s-2.818-14.686-8.458-20.34C-1553.908,309.512-1560.694,306.662-1568.597,306.662z"/>
	<path id="Twitter_2_" fill="#FFFFFF" d="M-1575.342,300.759h-56.878c-7.909,0-14.631-2.763-20.151-8.321
		c-5.552-5.564-8.295-12.286-8.295-20.233v-20.241h81.044c7.311,0,13.604-2.629,18.837-7.848c5.227-5.256,7.854-11.546,7.854-18.863
		c0-7.343-2.627-13.624-7.869-18.868c-5.247-5.23-11.56-7.851-18.906-7.851h-80.96v-62.898c0-7.915-2.821-14.689-8.431-20.334
		c-5.578-5.651-12.324-8.489-20.169-8.489c-8.057,0-14.916,2.795-20.497,8.324c-5.599,5.546-8.394,12.382-8.394,20.526v136.561
		c0,23.753,8.394,44.044,25.196,60.889c16.814,16.872,37.078,25.286,60.771,25.286h56.867c7.894,0,14.672-2.836,20.308-8.492
		c5.639-5.628,8.458-12.413,8.458-20.32c0-7.909-2.818-14.689-8.458-20.34C-1560.653,303.609-1567.439,300.759-1575.342,300.759z"/>
	<defs>
		<filter id="Adobe_OpacityMaskFilter" filterUnits="userSpaceOnUse" x="-1881.733" y="-11.952" width="505.493" height="244.135">
			<feColorMatrix  type="matrix" values="1 0 0 0 0  0 1 0 0 0  0 0 1 0 0  0 0 0 1 0"/>
		</filter>
	</defs>
	<mask maskUnits="userSpaceOnUse" x="-1881.733" y="-11.952" width="505.493" height="244.135" id="SVGID_2_">
		<g filter="url(#Adobe_OpacityMaskFilter)">
			
				<linearGradient id="SVGID_3_" gradientUnits="userSpaceOnUse" x1="-1499.8029" y1="156.6165" x2="-1103.0562" y2="960.195" gradientTransform="matrix(1.3161 -0.3227 -0.2515 -1.0258 305.0245 239.5211)">
				<stop  offset="0.3636" style="stop-color:#000000"/>
				<stop  offset="1" style="stop-color:#F1F1F2"/>
			</linearGradient>
			<polygon fill="url(#SVGID_3_)" points="-1050.071,281.675 -1860.802,480.467 -2022.556,-179.206 -1211.825,-377.997 			"/>
		</g>
	</mask>
	<path mask="url(#SVGID_2_)" fill="#FFFFFF" d="M-1405.983-11.952h-446.032c-16.343,0-29.718,12.918-29.718,28.705v142.412
		c61.28,44.787,150.668,73.018,250.233,73.018c102.324,0,193.899-29.816,255.26-76.777V16.753
		C-1376.239,0.967-1389.613-11.952-1405.983-11.952z"/>
</g>
<g>
	
		<linearGradient id="SVGID_4_" gradientUnits="userSpaceOnUse" x1="-1362.0598" y1="399.3416" x2="-1795.9161" y2="-117.7083" gradientTransform="matrix(1 0 0 -1 -50 373)">
		<stop  offset="0" style="stop-color:#0090CB"/>
		<stop  offset="0.2909" style="stop-color:#4572B7"/>
		<stop  offset="1" style="stop-color:#243F8D"/>
	</linearGradient>
	<path fill="url(#SVGID_4_)" d="M-1405.983-11.95c16.369,0,29.744,12.916,29.744,28.705v430.858
		c0,15.786-13.374,28.705-29.744,28.705h-446.035c-16.34,0-29.715-12.919-29.715-28.705V16.754
		c0-15.789,13.374-28.705,29.715-28.705L-1405.983-11.95L-1405.983-11.95z"/>
	<path fill="#234390" d="M-1637.525,181.975c5.457,7.593,8.191,16.677,8.191,27.265c0,10.907-2.734,19.678-8.254,26.313
		c-3.088,3.721-7.639,7.111-13.647,10.176c9.125,3.326,16.01,8.579,20.647,15.766c4.632,7.198,6.972,15.923,6.972,26.191
		c0,10.588-2.659,20.096-7.964,28.49c-3.384,5.573-7.598,10.269-12.654,14.065c-5.718,4.371-12.428,7.349-20.201,8.974
		c-7.755,1.625-16.166,2.415-25.251,2.415h-80.513V162.924h86.352C-1662.05,163.243-1646.621,169.588-1637.525,181.975z
		 M-1734.569,193.962v39.421h43.437c7.755,0,14.059-1.492,18.906-4.435c4.835-2.955,7.262-8.196,7.262-15.69
		c0-8.33-3.198-13.827-9.601-16.515c-5.52-1.852-12.561-2.781-21.118-2.781H-1734.569z M-1734.569,262.952v47.652h43.391
		c7.749,0,13.786-1.051,18.105-3.146c7.836-3.895,11.743-11.325,11.743-22.296c0-9.317-3.785-15.696-11.383-19.179
		c-4.249-1.939-10.199-2.955-17.867-3.03h-43.989V262.952z"/>
	<path fill="#234390" d="M-1515.583,212.166c9.218,4.127,16.846,10.646,22.836,19.55c5.422,7.854,8.939,16.962,10.542,27.317
		c0.929,6.072,1.312,14.82,1.138,26.226h-96.255c0.534,13.264,5.137,22.563,13.821,27.892c5.265,3.309,11.621,4.969,19.051,4.969
		c7.86,0,14.263-2.02,19.185-6.06c2.676-2.182,5.044-5.218,7.099-9.096h35.299c-0.94,7.836-5.218,15.801-12.817,23.898
		c-11.842,12.835-28.42,19.26-49.712,19.26c-17.594,0-33.116-5.404-46.56-16.259c-13.444-10.82-20.154-28.479-20.154-52.893
		c0-22.906,6.06-40.46,18.192-52.685c12.138-12.19,27.881-18.314,47.263-18.314
		C-1535.163,205.972-1524.801,208.033-1515.583,212.166z M-1567.275,242.014c-4.882,5.033-7.947,11.865-9.207,20.45h59.54
		c-0.615-9.171-3.698-16.114-9.207-20.886c-5.52-4.743-12.341-7.105-20.496-7.105
		C-1555.509,234.474-1562.393,236.976-1567.275,242.014z"/>
	<rect x="-1585.421" y="171.254" fill="#234390" width="76.583" height="22.232"/>
	<path fill="#FFFFFF" d="M-1644.27,176.083c5.456,7.593,8.191,16.677,8.191,27.265c0,10.907-2.734,19.678-8.255,26.313
		c-3.088,3.721-7.639,7.111-13.647,10.176c9.125,3.326,16.01,8.579,20.648,15.766c4.632,7.198,6.972,15.923,6.972,26.191
		c0,10.588-2.658,20.096-7.964,28.49c-3.384,5.573-7.598,10.269-12.654,14.065c-5.718,4.371-12.428,7.349-20.201,8.974
		c-7.755,1.625-16.166,2.415-25.251,2.415h-80.513V157.032h86.352C-1668.795,157.351-1653.366,163.696-1644.27,176.083z
		 M-1741.315,188.07v39.42h43.437c7.755,0,14.059-1.492,18.906-4.435c4.836-2.955,7.262-8.196,7.262-15.69
		c0-8.33-3.199-13.827-9.601-16.515c-5.52-1.852-12.561-2.78-21.118-2.78H-1741.315z M-1741.315,257.06v47.652h43.391
		c7.749,0,13.786-1.051,18.105-3.146c7.836-3.895,11.743-11.325,11.743-22.296c0-9.316-3.785-15.696-11.383-19.179
		c-4.249-1.939-10.199-2.955-17.867-3.03h-43.989V257.06z"/>
	<path fill="#FFFFFF" d="M-1522.328,206.274c9.218,4.127,16.846,10.646,22.836,19.55c5.422,7.854,8.939,16.962,10.542,27.317
		c0.929,6.072,1.312,14.82,1.138,26.226h-96.255c0.534,13.264,5.137,22.563,13.821,27.892c5.265,3.309,11.621,4.969,19.051,4.969
		c7.86,0,14.262-2.02,19.185-6.06c2.676-2.183,5.044-5.218,7.099-9.096h35.299c-0.94,7.836-5.218,15.801-12.817,23.898
		c-11.842,12.834-28.42,19.26-49.712,19.26c-17.595,0-33.116-5.404-46.561-16.259c-13.444-10.82-20.154-28.478-20.154-52.893
		c0-22.906,6.06-40.46,18.192-52.685c12.138-12.19,27.88-18.314,47.263-18.314C-1541.908,200.08-1531.547,202.141-1522.328,206.274z
		 M-1574.02,236.122c-4.882,5.033-7.947,11.865-9.206,20.45h59.54c-0.615-9.171-3.698-16.114-9.207-20.886
		c-5.52-4.742-12.341-7.105-20.497-7.105C-1562.254,228.582-1569.138,231.084-1574.02,236.122z"/>
	<rect x="-1592.166" y="165.362" fill="#FFFFFF" width="76.583" height="22.232"/>
	<defs>
		
			<filter id="Adobe_OpacityMaskFilter_1_" filterUnits="userSpaceOnUse" x="-1881.733" y="-11.95" width="505.493" height="244.127">
			<feColorMatrix  type="matrix" values="1 0 0 0 0  0 1 0 0 0  0 0 1 0 0  0 0 0 1 0"/>
		</filter>
	</defs>
	<mask maskUnits="userSpaceOnUse" x="-1881.733" y="-11.95" width="505.493" height="244.127" id="SVGID_5_">
		<g filter="url(#Adobe_OpacityMaskFilter_1_)">
			
				<linearGradient id="SVGID_6_" gradientUnits="userSpaceOnUse" x1="-1499.8014" y1="156.6235" x2="-1103.0571" y2="960.1969" gradientTransform="matrix(1.3161 -0.3227 -0.2515 -1.0258 305.0245 239.5211)">
				<stop  offset="0.3636" style="stop-color:#000000"/>
				<stop  offset="1" style="stop-color:#F1F1F2"/>
			</linearGradient>
			<polygon fill="url(#SVGID_6_)" points="-1050.073,281.668 -1860.801,480.459 -2022.557,-179.204 -1211.824,-377.998 			"/>
		</g>
	</mask>
	<path mask="url(#SVGID_5_)" fill="#FFFFFF" d="M-1405.983-11.95h-446.035c-16.34,0-29.715,12.916-29.715,28.705v142.403
		c61.281,44.79,150.669,73.019,250.233,73.019c102.321,0,193.898-29.817,255.26-76.777V16.754
		C-1376.239,0.965-1389.613-11.95-1405.983-11.95z"/>
</g>
<g>
	
		<linearGradient id="SVGID_7_" gradientUnits="userSpaceOnUse" x1="-1362.0596" y1="399.3414" x2="-1795.9155" y2="-117.7079" gradientTransform="matrix(1 0 0 -1 -50 373)">
		<stop  offset="0" style="stop-color:#258CC6"/>
		<stop  offset="0.2909" style="stop-color:#20809B"/>
		<stop  offset="1" style="stop-color:#005081"/>
	</linearGradient>
	<path fill="url(#SVGID_7_)" d="M-1405.983-11.95c16.369,0,29.744,12.916,29.744,28.705v430.858
		c0,15.786-13.374,28.705-29.744,28.705h-446.029c-16.346,0-29.721-12.919-29.721-28.705V16.754
		c0-15.789,13.374-28.705,29.721-28.705L-1405.983-11.95L-1405.983-11.95z"/>
	<defs>
		
			<filter id="Adobe_OpacityMaskFilter_2_" filterUnits="userSpaceOnUse" x="-1881.733" y="-11.95" width="505.493" height="244.127">
			<feColorMatrix  type="matrix" values="1 0 0 0 0  0 1 0 0 0  0 0 1 0 0  0 0 0 1 0"/>
		</filter>
	</defs>
	<mask maskUnits="userSpaceOnUse" x="-1881.733" y="-11.95" width="505.493" height="244.127" id="SVGID_8_">
		<g filter="url(#Adobe_OpacityMaskFilter_2_)">
			
				<linearGradient id="SVGID_9_" gradientUnits="userSpaceOnUse" x1="-1499.7983" y1="156.622" x2="-1103.0542" y2="960.1954" gradientTransform="matrix(1.3161 -0.3227 -0.2515 -1.0258 305.0245 239.5211)">
				<stop  offset="0.3636" style="stop-color:#000000"/>
				<stop  offset="1" style="stop-color:#F1F1F2"/>
			</linearGradient>
			<polygon fill="url(#SVGID_9_)" points="-1050.067,281.668 -1860.8,480.459 -2022.554,-179.204 -1211.824,-377.998 			"/>
		</g>
	</mask>
	<path mask="url(#SVGID_8_)" fill="#FFFFFF" d="M-1405.983-11.95h-446.029c-16.346,0-29.721,12.916-29.721,28.705v142.403
		c61.281,44.79,150.669,73.019,250.233,73.019c102.327,0,193.904-29.817,255.26-76.777V16.754
		C-1376.239,0.965-1389.613-11.95-1405.983-11.95z"/>
	<path fill="#015282" d="M-1690.453,350.66h-44.581V208.001h44.581V350.66z M-1713.875,190.168h-0.325
		c-16.126,0-26.58-10.913-26.58-24.728c0-14.083,10.762-24.763,27.213-24.763c16.451,0,26.569,10.652,26.888,24.734
		C-1686.68,179.227-1697.117,190.168-1713.875,190.168z M-1512.129,350.66h-50.525v-73.814c0-19.33-7.912-32.507-25.297-32.507
		c-13.299,0-20.683,8.893-24.142,17.484c-1.289,3.065-1.085,7.355-1.085,11.639v77.198h-50.055c0,0,0.627-130.771,0-142.659h50.055
		v22.395c2.972-9.793,18.958-23.759,44.499-23.759c31.648,0,56.551,20.532,56.551,64.7L-1512.129,350.66L-1512.129,350.66z"/>
	<path fill="#FFFFFF" d="M-1695.514,345.609h-44.581V202.951h44.581V345.609z M-1718.937,185.118h-0.319
		c-16.126,0-26.58-10.913-26.58-24.728c0-14.083,10.762-24.763,27.213-24.763c16.445,0,26.563,10.652,26.882,24.734
		C-1691.741,174.176-1702.178,185.118-1718.937,185.118z M-1517.191,345.609h-50.525v-73.814c0-19.33-7.912-32.507-25.298-32.507
		c-13.299,0-20.677,8.893-24.142,17.484c-1.289,3.065-1.085,7.355-1.085,11.639v77.198h-50.055c0,0,0.632-130.771,0-142.659h50.055
		v22.395c2.972-9.793,18.958-23.759,44.5-23.759c31.648,0,56.55,20.532,56.55,64.701V345.609L-1517.191,345.609z"/>
</g>
<g>
	
		<linearGradient id="SVGID_10_" gradientUnits="userSpaceOnUse" x1="-1362.0597" y1="399.3415" x2="-1795.9158" y2="-117.7081" gradientTransform="matrix(1 0 0 -1 -50 373)">
		<stop  offset="0" style="stop-color:#76927B"/>
		<stop  offset="0.4242" style="stop-color:#485F4B"/>
		<stop  offset="1" style="stop-color:#35403A"/>
	</linearGradient>
	<path fill="url(#SVGID_10_)" d="M-1405.983-11.95c16.369,0,29.744,12.916,29.744,28.705v430.858
		c0,15.786-13.374,28.705-29.744,28.705h-446.032c-16.343,0-29.718-12.919-29.718-28.705V16.754
		c0-15.789,13.374-28.705,29.718-28.705L-1405.983-11.95L-1405.983-11.95z"/>
	<path id="deviantART_3_" fill="#36413B" d="M-1669.454,192.852c-1.001,0.151-1.875,0.395-2.873,0.569l-16.523-33.767l-48.998,5.602
		l19.968,41.092c-103.319,42.915-57.54,144.11-57.54,144.11l157.647-45.643l-43.316-88.454
		c77.744-22.476,142.662,23.475,142.662,23.475l-53.514,14.535l-15.406-28.786c-14.495-2.699-30.998-3.529-48.586-0.58l36.44,74.487
		l157.403-45.614C-1442.091,253.878-1499.17,163.689-1669.454,192.852z M-1732.767,298.041c0,0-15.191-33.737,29.012-62.634
		l23.512,48.389L-1732.767,298.041z"/>
	<path id="deviantART_2_" fill="#C1D71D" d="M-1676.199,186.96c-1.002,0.151-1.875,0.395-2.873,0.569l-16.523-33.767l-48.998,5.602
		l19.965,41.092c-103.317,42.915-57.537,144.11-57.537,144.11l157.647-45.643l-43.315-88.454
		c77.741-22.476,142.662,23.475,142.662,23.475l-53.515,14.535l-15.406-28.786c-14.494-2.699-31-3.529-48.586-0.58l36.437,74.487
		l157.403-45.614C-1448.84,247.986-1505.915,157.796-1676.199,186.96z M-1739.512,292.149c0,0-15.191-33.737,29.01-62.634
		l23.512,48.389L-1739.512,292.149z"/>
	<defs>
		
			<filter id="Adobe_OpacityMaskFilter_3_" filterUnits="userSpaceOnUse" x="-1881.733" y="-11.95" width="505.493" height="244.127">
			<feColorMatrix  type="matrix" values="1 0 0 0 0  0 1 0 0 0  0 0 1 0 0  0 0 0 1 0"/>
		</filter>
	</defs>
	<mask maskUnits="userSpaceOnUse" x="-1881.733" y="-11.95" width="505.493" height="244.127" id="SVGID_11_">
		<g filter="url(#Adobe_OpacityMaskFilter_3_)">
			
				<linearGradient id="SVGID_12_" gradientUnits="userSpaceOnUse" x1="-1499.8011" y1="156.6233" x2="-1103.0568" y2="960.1968" gradientTransform="matrix(1.3161 -0.3227 -0.2515 -1.0258 305.0245 239.5211)">
				<stop  offset="0.3636" style="stop-color:#000000"/>
				<stop  offset="1" style="stop-color:#F1F1F2"/>
			</linearGradient>
			<polygon fill="url(#SVGID_12_)" points="-1050.073,281.668 -1860.802,480.459 -2022.556,-179.204 -1211.824,-377.998 			"/>
		</g>
	</mask>
	<path mask="url(#SVGID_11_)" fill="#FFFFFF" d="M-1405.983-11.95h-446.032c-16.343,0-29.718,12.916-29.718,28.705v142.403
		c61.28,44.79,150.668,73.019,250.233,73.019c102.324,0,193.899-29.817,255.26-76.777V16.754
		C-1376.239,0.965-1389.613-11.95-1405.983-11.95z"/>
</g>
<g>
	
		<linearGradient id="SVGID_13_" gradientUnits="userSpaceOnUse" x1="-1362.0594" y1="399.3411" x2="-1795.9153" y2="-117.708" gradientTransform="matrix(1 0 0 -1 -50 373)">
		<stop  offset="0" style="stop-color:#366A9A"/>
		<stop  offset="0.2909" style="stop-color:#3565A5"/>
		<stop  offset="1" style="stop-color:#254E7A"/>
	</linearGradient>
	<path fill="url(#SVGID_13_)" d="M-1405.983-11.95c16.37,0,29.744,12.916,29.744,28.705v430.856
		c0,15.789-13.374,28.705-29.744,28.705h-446.032c-16.343,0-29.718-12.916-29.718-28.705V16.755
		c0-15.789,13.374-28.705,29.718-28.705H-1405.983z"/>
	<path fill="#264F7C" d="M-1690.923,166.194c0,3.761,0,19.736,0,19.736h28.365c0,0,3.631,0.093,3.631-3.999
		c0-3.75,0-19.719,0-19.719h-28.377C-1687.304,162.212-1690.923,162.101-1690.923,166.194z M-1690.917,207.152
		c0,3.744,0,106.704,0,106.704h28.348c0,0,3.608,0.087,3.608-3.994c0-0.819,0.035-106.698,0.035-106.698h-28.359
		C-1687.286,203.164-1690.917,203.072-1690.917,207.152z M-1732.558,166.194v36.971h-50.679c0,0-3.613-0.093-3.613,4.005v106.686
		h82.643c0,0,3.614,0.087,3.614-4.005c0-3.744,0.032-147.639,0.032-147.639h-28.365
		C-1728.927,162.212-1732.558,162.101-1732.558,166.194z M-1732.546,286.092c0,4.11-3.631,4-3.631,4h-19.353v-59.203
		c0-4.098,3.619-3.999,3.619-3.999h19.365V286.092z M-1647.944,207.17v106.686h54.292v14.239h-50.679c0,0-3.613-0.087-3.613,4.005
		c0,3.733,0,19.713,0,19.713h82.655c0,0,3.613,0.099,3.613-3.988c0-3.75,0.012-144.592,0.012-144.592l-82.666-0.07
		C-1644.331,203.164-1647.944,203.072-1647.944,207.17z M-1616.601,230.888c0-4.098,3.619-3.999,3.619-3.999h19.342v59.203
		c0,4.11-3.64,4-3.64,4h-19.321V230.888z M-1547.051,203.164c0,0-3.631-0.093-3.631,4.005v106.686h54.31v14.239h-50.679
		c0,0-3.631-0.087-3.631,4.005c0,3.733,0,19.713,0,19.713h82.643c0,0,3.628,0.099,3.628-3.988c0-3.75,0.023-144.592,0.023-144.592
		L-1547.051,203.164z M-1496.366,286.092c0,4.11-3.631,4-3.631,4h-19.359v-59.203c0-4.098,3.637-3.999,3.637-3.999h19.353V286.092
		L-1496.366,286.092z"/>
	<path fill="#FFFFFF" d="M-1697.657,160.302c0,3.762,0,19.737,0,19.737h28.365c0,0,3.631,0.093,3.631-4c0-3.75,0-19.719,0-19.719
		h-28.377C-1694.037,156.32-1697.657,156.209-1697.657,160.302z M-1697.651,201.261c0,3.744,0,106.704,0,106.704h28.348
		c0,0,3.608,0.087,3.608-3.994c0-0.819,0.035-106.698,0.035-106.698h-28.359C-1694.02,197.273-1697.651,197.18-1697.651,201.261z
		 M-1739.291,160.302v36.971h-50.679c0,0-3.613-0.093-3.613,4.005v106.686h82.643c0,0,3.613,0.087,3.613-4.005
		c0-3.744,0.032-147.639,0.032-147.639h-28.365C-1735.661,156.32-1739.291,156.209-1739.291,160.302z M-1739.28,280.2
		c0,4.11-3.631,4-3.631,4h-19.353v-59.203c0-4.098,3.619-3.999,3.619-3.999h19.365V280.2z M-1654.678,201.278v106.686h54.292v14.239
		h-50.679c0,0-3.613-0.087-3.613,4.005c0,3.733,0,19.713,0,19.713h82.654c0,0,3.614,0.099,3.614-3.988
		c0-3.75,0.012-144.592,0.012-144.592l-82.666-0.07C-1651.064,197.273-1654.678,197.18-1654.678,201.278z M-1623.335,224.996
		c0-4.098,3.619-3.999,3.619-3.999h19.342V280.2c0,4.11-3.64,4-3.64,4h-19.321V224.996z M-1553.784,197.273
		c0,0-3.631-0.093-3.631,4.005v106.686h54.31v14.239h-50.679c0,0-3.631-0.087-3.631,4.005c0,3.733,0,19.713,0,19.713h82.643
		c0,0,3.628,0.099,3.628-3.988c0-3.75,0.023-144.592,0.023-144.592L-1553.784,197.273z M-1503.1,280.2c0,4.11-3.631,4-3.631,4
		h-19.359v-59.203c0-4.098,3.637-3.999,3.637-3.999h19.353V280.2L-1503.1,280.2z"/>
	<defs>
		
			<filter id="Adobe_OpacityMaskFilter_4_" filterUnits="userSpaceOnUse" x="-1881.733" y="-11.95" width="505.493" height="244.127">
			<feColorMatrix  type="matrix" values="1 0 0 0 0  0 1 0 0 0  0 0 1 0 0  0 0 0 1 0"/>
		</filter>
	</defs>
	<mask maskUnits="userSpaceOnUse" x="-1881.733" y="-11.95" width="505.493" height="244.127" id="SVGID_14_">
		<g filter="url(#Adobe_OpacityMaskFilter_4_)">
			
				<linearGradient id="SVGID_15_" gradientUnits="userSpaceOnUse" x1="-1499.8004" y1="156.6221" x2="-1103.0568" y2="960.1942" gradientTransform="matrix(1.3161 -0.3227 -0.2515 -1.0258 305.0245 239.5211)">
				<stop  offset="0.3636" style="stop-color:#000000"/>
				<stop  offset="1" style="stop-color:#F1F1F2"/>
			</linearGradient>
			<polygon fill="url(#SVGID_15_)" points="-1050.071,281.668 -1860.802,480.46 -2022.556,-179.202 -1211.825,-377.996 			"/>
		</g>
	</mask>
	<path mask="url(#SVGID_14_)" fill="#FFFFFF" d="M-1405.983-11.95h-446.032c-16.343,0-29.718,12.916-29.718,28.705v142.403
		c61.28,44.79,150.668,73.019,250.233,73.019c102.324,0,193.899-29.814,255.26-76.774V16.755
		C-1376.239,0.966-1389.613-11.95-1405.983-11.95z"/>
</g>
<g>
	
		<linearGradient id="SVGID_16_" gradientUnits="userSpaceOnUse" x1="-1362.0596" y1="399.3409" x2="-1795.9149" y2="-117.7079" gradientTransform="matrix(1 0 0 -1 -50 373)">
		<stop  offset="0" style="stop-color:#30668C"/>
		<stop  offset="0.4788" style="stop-color:#2E5E82"/>
		<stop  offset="1" style="stop-color:#2B4963"/>
	</linearGradient>
	<path fill="url(#SVGID_16_)" d="M-1405.983-11.95c16.369,0,29.744,12.916,29.744,28.705v430.856
		c0,15.789-13.374,28.705-29.744,28.705h-446.029c-16.346,0-29.721-12.916-29.721-28.705V16.755
		c0-15.789,13.374-28.705,29.721-28.705H-1405.983z"/>
	<path fill="#1C2E3C" d="M-1617.231,120.91v61.99h58.187v38.497h-58.187v62.895c0,14.228,0.755,23.359,2.247,27.375
		c1.515,4.046,4.313,7.268,8.417,9.682c5.416,3.257,11.621,4.87,18.616,4.87c12.405,0,24.752-4.04,37.052-12.109v38.695
		c-10.489,4.923-19.974,8.394-28.467,10.379c-8.498,2.003-17.687,2.995-27.567,2.995c-11.203,0-21.124-1.422-29.732-4.249
		c-8.614-2.856-15.963-6.873-22.046-12.12c-6.078-5.236-10.304-10.826-12.649-16.723c-2.357-5.898-3.523-14.448-3.523-25.669
		v-86.021h-27.12v-34.695c9.648-3.141,17.896-7.633,24.763-13.461c6.867-5.845,12.393-12.852,16.544-21.072
		c4.156-8.179,7.018-18.604,8.585-31.259L-1617.231,120.91L-1617.231,120.91z"/>
	<path fill="#FFFFFF" d="M-1623.976,115.018v61.989h58.187v38.498h-58.187V278.4c0,14.228,0.749,23.358,2.246,27.375
		c1.515,4.046,4.313,7.268,8.411,9.682c5.422,3.257,11.621,4.87,18.622,4.87c12.405,0,24.752-4.04,37.046-12.109v38.695
		c-10.484,4.923-19.969,8.394-28.461,10.379c-8.504,2.003-17.687,2.995-27.573,2.995c-11.198,0-21.118-1.422-29.727-4.249
		c-8.614-2.856-15.963-6.873-22.047-12.12c-6.078-5.236-10.304-10.826-12.648-16.724c-2.357-5.897-3.529-14.448-3.529-25.669
		v-86.021h-27.114v-34.696c9.642-3.14,17.896-7.633,24.763-13.461c6.867-5.845,12.387-12.852,16.538-21.071
		c4.162-8.179,7.024-18.604,8.591-31.259h34.882V115.018z"/>
	<defs>
		
			<filter id="Adobe_OpacityMaskFilter_5_" filterUnits="userSpaceOnUse" x="-1881.733" y="-11.95" width="505.493" height="244.127">
			<feColorMatrix  type="matrix" values="1 0 0 0 0  0 1 0 0 0  0 0 1 0 0  0 0 0 1 0"/>
		</filter>
	</defs>
	<mask maskUnits="userSpaceOnUse" x="-1881.733" y="-11.95" width="505.493" height="244.127" id="SVGID_17_">
		<g filter="url(#Adobe_OpacityMaskFilter_5_)">
			
				<linearGradient id="SVGID_18_" gradientUnits="userSpaceOnUse" x1="-1499.7982" y1="156.6212" x2="-1103.0548" y2="960.1933" gradientTransform="matrix(1.3161 -0.3227 -0.2515 -1.0258 305.0245 239.5211)">
				<stop  offset="0.3636" style="stop-color:#000000"/>
				<stop  offset="1" style="stop-color:#F1F1F2"/>
			</linearGradient>
			<polygon fill="url(#SVGID_18_)" points="-1050.067,281.668 -1860.8,480.46 -2022.554,-179.202 -1211.824,-377.996 			"/>
		</g>
	</mask>
	<path mask="url(#SVGID_17_)" fill="#FFFFFF" d="M-1405.983-11.95h-446.029c-16.346,0-29.721,12.916-29.721,28.705v142.403
		c61.281,44.79,150.669,73.019,250.233,73.019c102.327,0,193.904-29.814,255.26-76.774V16.755
		C-1376.239,0.966-1389.613-11.95-1405.983-11.95z"/>
</g>
<g>
	
		<linearGradient id="SVGID_19_" gradientUnits="userSpaceOnUse" x1="-1362.0598" y1="399.341" x2="-1795.9154" y2="-117.7083" gradientTransform="matrix(1 0 0 -1 -50 373)">
		<stop  offset="0" style="stop-color:#FE8001"/>
		<stop  offset="0.4788" style="stop-color:#FF6500"/>
		<stop  offset="1" style="stop-color:#EB5703"/>
	</linearGradient>
	<path fill="url(#SVGID_19_)" d="M-1405.983-11.95c16.369,0,29.744,12.916,29.744,28.705v430.856
		c0,15.789-13.374,28.705-29.744,28.705h-446.035c-16.34,0-29.715-12.916-29.715-28.705V16.755
		c0-15.789,13.374-28.705,29.715-28.705H-1405.983z"/>
	<path fill="#D64700" d="M-1510.4,233.077l-1.945-4.023l-3.262-2.566c-4.278-3.355-25.884,0.232-31.729-5.062
		c-4.121-3.819-4.731-10.652-5.985-19.899c-2.328-17.971-3.802-18.9-6.612-24.966c-10.176-21.599-37.783-37.859-56.754-40.105
		h-51.39c-40.424,0-73.465,33.116-73.465,73.558v85.76c0,40.337,33.041,73.378,73.465,73.378h84.437
		c40.43,0,73.239-33.041,73.471-73.378l0.47-59.424L-1510.4,233.077z M-1667.141,196.541h40.738c7.779,0,14.077,6.304,14.077,14.001
		c0,7.697-6.298,14.083-14.077,14.083h-40.738c-7.784,0-14.071-6.385-14.071-14.083
		C-1681.212,202.845-1674.925,196.541-1667.141,196.541z M-1584.335,308.661h-82.805c-7.784,0-14.071-6.374-14.071-13.995
		c0-7.697,6.287-13.984,14.071-13.984h82.805c7.697,0,13.984,6.287,13.984,13.984
		C-1570.352,302.287-1576.638,308.661-1584.335,308.661z"/>
	<path fill="#FFFFFF" d="M-1517.133,227.185l-1.944-4.023l-3.262-2.565c-4.278-3.355-25.884,0.232-31.729-5.062
		c-4.121-3.819-4.731-10.652-5.985-19.899c-2.328-17.972-3.802-18.901-6.612-24.966c-10.176-21.6-37.783-37.859-56.754-40.105
		h-51.39c-40.424,0-73.465,33.116-73.465,73.558v85.76c0,40.337,33.041,73.378,73.465,73.378h84.437
		c40.43,0,73.239-33.041,73.471-73.378l0.47-59.424L-1517.133,227.185z M-1673.874,190.649h40.738
		c7.778,0,14.077,6.304,14.077,14.001c0,7.697-6.298,14.082-14.077,14.082h-40.738c-7.784,0-14.071-6.385-14.071-14.082
		S-1681.659,190.649-1673.874,190.649z M-1591.069,302.769h-82.805c-7.784,0-14.071-6.374-14.071-13.995
		c0-7.697,6.286-13.984,14.071-13.984h82.805c7.697,0,13.984,6.287,13.984,13.984
		C-1577.085,296.396-1583.372,302.769-1591.069,302.769z"/>
	<defs>
		
			<filter id="Adobe_OpacityMaskFilter_6_" filterUnits="userSpaceOnUse" x="-1881.733" y="-11.95" width="505.493" height="244.127">
			<feColorMatrix  type="matrix" values="1 0 0 0 0  0 1 0 0 0  0 0 1 0 0  0 0 0 1 0"/>
		</filter>
	</defs>
	<mask maskUnits="userSpaceOnUse" x="-1881.733" y="-11.95" width="505.493" height="244.127" id="SVGID_20_">
		<g filter="url(#Adobe_OpacityMaskFilter_6_)">
			
				<linearGradient id="SVGID_21_" gradientUnits="userSpaceOnUse" x1="-1499.8013" y1="156.6227" x2="-1103.0577" y2="960.1948" gradientTransform="matrix(1.3161 -0.3227 -0.2515 -1.0258 305.0245 239.5211)">
				<stop  offset="0.3636" style="stop-color:#000000"/>
				<stop  offset="1" style="stop-color:#F1F1F2"/>
			</linearGradient>
			<polygon fill="url(#SVGID_21_)" points="-1050.073,281.668 -1860.801,480.46 -2022.557,-179.202 -1211.824,-377.996 			"/>
		</g>
	</mask>
	<path mask="url(#SVGID_20_)" fill="#FFFFFF" d="M-1405.983-11.95h-446.035c-16.34,0-29.715,12.916-29.715,28.705v142.403
		c61.281,44.79,150.669,73.019,250.233,73.019c102.321,0,193.898-29.814,255.26-76.774V16.755
		C-1376.239,0.966-1389.613-11.95-1405.983-11.95z"/>
</g>
<g>
	
		<linearGradient id="SVGID_22_" gradientUnits="userSpaceOnUse" x1="-1362.0596" y1="399.3417" x2="-1795.9158" y2="-117.7081" gradientTransform="matrix(1 0 0 -1 -50 373)">
		<stop  offset="0" style="stop-color:#F85E90"/>
		<stop  offset="0.5576" style="stop-color:#F82790"/>
		<stop  offset="1" style="stop-color:#D91282"/>
	</linearGradient>
	<path fill="url(#SVGID_22_)" d="M-1405.983-11.95c16.37,0,29.744,12.916,29.744,28.705v430.858
		c0,15.786-13.374,28.705-29.744,28.705h-446.032c-16.343,0-29.718-12.919-29.718-28.705V16.754
		c0-15.789,13.374-28.705,29.718-28.705L-1405.983-11.95L-1405.983-11.95z"/>
	<path fill="#D31C85" d="M-1625.612,126.366c-68.854,0-124.806,55.941-124.806,124.879c0,68.915,55.953,124.722,124.806,124.722
		c68.929,0,124.803-55.807,124.803-124.722C-1500.808,182.307-1556.682,126.366-1625.612,126.366z M-1625.612,333.749
		c-45.53,0-82.501-36.913-82.501-82.504c0-45.614,36.971-82.591,82.501-82.591c45.599,0,82.576,36.977,82.576,82.591
		C-1543.036,296.836-1580.012,333.749-1625.612,333.749z"/>
	<path fill="#FFFFFF" d="M-1632.358,120.475c-68.852,0-124.805,55.941-124.805,124.879c0,68.915,55.952,124.722,124.805,124.722
		c68.929,0,124.803-55.807,124.803-124.722C-1507.555,176.416-1563.429,120.475-1632.358,120.475z M-1632.358,327.857
		c-45.529,0-82.501-36.913-82.501-82.503c0-45.614,36.972-82.591,82.501-82.591c45.599,0,82.576,36.977,82.576,82.591
		C-1549.782,290.944-1586.759,327.857-1632.358,327.857z"/>
	<defs>
		
			<filter id="Adobe_OpacityMaskFilter_7_" filterUnits="userSpaceOnUse" x="-1881.733" y="-11.95" width="505.493" height="244.126">
			<feColorMatrix  type="matrix" values="1 0 0 0 0  0 1 0 0 0  0 0 1 0 0  0 0 0 1 0"/>
		</filter>
	</defs>
	<mask maskUnits="userSpaceOnUse" x="-1881.733" y="-11.95" width="505.493" height="244.126" id="SVGID_23_">
		<g filter="url(#Adobe_OpacityMaskFilter_7_)">
			
				<linearGradient id="SVGID_24_" gradientUnits="userSpaceOnUse" x1="-1499.8004" y1="156.6229" x2="-1103.0562" y2="960.1963" gradientTransform="matrix(1.3161 -0.3227 -0.2515 -1.0258 305.0245 239.5211)">
				<stop  offset="0.3636" style="stop-color:#000000"/>
				<stop  offset="1" style="stop-color:#F1F1F2"/>
			</linearGradient>
			<polygon fill="url(#SVGID_24_)" points="-1050.071,281.668 -1860.802,480.459 -2022.556,-179.204 -1211.825,-377.998 			"/>
		</g>
	</mask>
	<path mask="url(#SVGID_23_)" fill="#FFFFFF" d="M-1405.983-11.95h-446.032c-16.343,0-29.718,12.916-29.718,28.705v142.403
		c61.28,44.79,150.668,73.018,250.233,73.018c102.324,0,193.899-29.816,255.26-76.777V16.754
		C-1376.239,0.965-1389.613-11.95-1405.983-11.95z"/>
</g>
<g>
	
		<linearGradient id="SVGID_25_" gradientUnits="userSpaceOnUse" x1="-1362.0598" y1="399.3416" x2="-1795.916" y2="-117.7083" gradientTransform="matrix(1 0 0 -1 -50 373)">
		<stop  offset="0" style="stop-color:#F85E90"/>
		<stop  offset="0.5576" style="stop-color:#EA4C88"/>
		<stop  offset="1" style="stop-color:#CC2E6B"/>
	</linearGradient>
	<path fill="url(#SVGID_25_)" d="M-1405.983-11.95c16.369,0,29.744,12.916,29.744,28.705v430.858
		c0,15.786-13.374,28.705-29.744,28.705h-446.035c-16.34,0-29.715-12.919-29.715-28.705V16.754
		c0-15.789,13.374-28.705,29.715-28.705L-1405.983-11.95L-1405.983-11.95z"/>
	<defs>
		
			<filter id="Adobe_OpacityMaskFilter_8_" filterUnits="userSpaceOnUse" x="-1881.733" y="-11.95" width="505.493" height="244.127">
			<feColorMatrix  type="matrix" values="1 0 0 0 0  0 1 0 0 0  0 0 1 0 0  0 0 0 1 0"/>
		</filter>
	</defs>
	<mask maskUnits="userSpaceOnUse" x="-1881.733" y="-11.95" width="505.493" height="244.127" id="SVGID_26_">
		<g filter="url(#Adobe_OpacityMaskFilter_8_)">
			
				<linearGradient id="SVGID_27_" gradientUnits="userSpaceOnUse" x1="-1499.8014" y1="156.6235" x2="-1103.0571" y2="960.1969" gradientTransform="matrix(1.3161 -0.3227 -0.2515 -1.0258 305.0245 239.5211)">
				<stop  offset="0.3636" style="stop-color:#000000"/>
				<stop  offset="1" style="stop-color:#F1F1F2"/>
			</linearGradient>
			<polygon fill="url(#SVGID_27_)" points="-1050.073,281.668 -1860.801,480.459 -2022.557,-179.204 -1211.824,-377.998 			"/>
		</g>
	</mask>
	<path mask="url(#SVGID_26_)" fill="#FFFFFF" d="M-1405.983-11.95h-446.035c-16.34,0-29.715,12.916-29.715,28.705v142.403
		c61.281,44.79,150.669,73.019,250.233,73.019c102.321,0,193.898-29.817,255.26-76.777V16.754
		C-1376.239,0.965-1389.613-11.95-1405.983-11.95z"/>
	<path fill="#CC2E6B" d="M-1490.977,225.913c-1.799-8.78-4.481-17.417-7.97-25.669c-3.425-8.098-7.662-15.908-12.596-23.213
		c-4.888-7.23-10.495-14.025-16.672-20.198c-6.176-6.179-12.974-11.79-20.206-16.677c-7.302-4.931-15.11-9.169-23.208-12.596
		c-8.254-3.489-16.892-6.174-25.675-7.967c-8.992-1.84-18.25-2.775-27.509-2.775c-9.253,0-18.511,0.935-27.509,2.775
		c-8.783,1.794-17.414,4.479-25.669,7.967c-8.098,3.428-15.911,7.665-23.213,12.596c-7.227,4.888-14.025,10.498-20.201,16.677
		c-6.182,6.173-11.784,12.968-16.672,20.198c-4.934,7.305-9.171,15.116-12.596,23.213c-3.495,8.252-6.176,16.889-7.97,25.669
		c-1.84,8.997-2.775,18.256-2.775,27.509c0,9.259,0.934,18.511,2.775,27.515c1.794,8.78,4.475,17.414,7.97,25.669
		c3.425,8.095,7.662,15.911,12.596,23.213c4.888,7.227,10.489,14.025,16.672,20.201c6.176,6.179,12.974,11.784,20.201,16.671
		c7.302,4.934,15.116,9.171,23.213,12.596c8.254,3.495,16.886,6.171,25.669,7.97c8.998,1.843,18.256,2.777,27.509,2.777
		c9.259,0,18.517-0.934,27.509-2.777c8.783-1.8,17.42-4.476,25.675-7.97c8.098-3.425,15.905-7.662,23.208-12.596
		c7.233-4.888,14.03-10.492,20.206-16.671c6.177-6.176,11.784-12.974,16.672-20.201c4.934-7.302,9.171-15.119,12.596-23.213
		c3.489-8.255,6.171-16.889,7.97-25.669c1.84-9.003,2.775-18.256,2.775-27.515C-1488.202,244.169-1489.136,234.91-1490.977,225.913z
		 M-1508.176,252.255c-1.294-0.284-40.959-8.881-81.261-3.819c-0.819-1.997-1.654-4.005-2.513-6.026
		c-2.426-5.7-5.039-11.357-7.755-16.918c46.032-18.793,64.741-45.806,64.997-46.174
		C-1518.346,199.191-1508.449,224.569-1508.176,252.255z M-1547.754,165.868c-0.319,0.494-16.956,25.759-60.933,42.242
		c-19.934-36.617-41.835-65.71-43.612-68.055c8.818-2.133,18.018-3.291,27.486-3.291
		C-1595.266,136.763-1568.308,147.769-1547.754,165.868z M-1652.751,140.156c-0.006,0-0.018,0.009-0.018,0.009
		s-0.133,0.029-0.348,0.075C-1652.994,140.211-1652.873,140.188-1652.751,140.156z M-1674.583,147.902
		c1.579,2.133,23.144,31.369,43.321,67.231c-56.028,14.878-104.649,14.291-107.714,14.236
		C-1731.4,193.249-1707.119,163.279-1674.583,147.902z M-1741.471,253.422c0-1.236,0.058-2.461,0.093-3.698
		c2.049,0.052,59.702,1.364,119.776-16.613c3.344,6.548,6.536,13.183,9.467,19.824c-1.544,0.438-3.077,0.9-4.597,1.387
		c-62.959,20.348-94.891,77.006-94.891,77.006s0.035,0.046,0.046,0.064C-1730.158,310.73-1741.471,283.404-1741.471,253.422z
		 M-1624.812,370.081c-28.235,0-54.13-10.034-74.307-26.725c1.538,1.233,2.607,2.037,2.607,2.037s22.366-48.775,91.559-72.882
		c0.256-0.09,0.511-0.166,0.766-0.253c16.41,42.639,23.19,78.365,24.926,88.599
		C-1593.257,366.796-1608.652,370.081-1624.812,370.081z M-1559.619,350.185c-1.178-6.983-7.383-41.228-22.702-83.325
		c37.708-6.043,70.366,4.313,72.693,5.073C-1514.817,304.458-1533.427,332.504-1559.619,350.185z"/>
	<path fill="#FFFFFF" d="M-1495.115,221.783c-1.8-8.78-4.476-17.417-7.97-25.669c-3.425-8.101-7.662-15.908-12.596-23.214
		c-4.888-7.23-10.495-14.024-16.671-20.198c-6.177-6.182-12.974-11.79-20.201-16.677c-7.308-4.928-15.116-9.169-23.214-12.596
		c-8.254-3.489-16.892-6.173-25.669-7.97c-8.997-1.84-18.256-2.775-27.509-2.775c-9.259,0-18.517,0.935-27.515,2.775
		c-8.777,1.797-17.414,4.481-25.669,7.97c-8.098,3.428-15.911,7.668-23.213,12.596c-7.227,4.888-14.025,10.495-20.201,16.677
		c-6.176,6.173-11.784,12.968-16.671,20.198c-4.934,7.306-9.172,15.113-12.596,23.214c-3.494,8.252-6.176,16.889-7.97,25.669
		c-1.84,8.998-2.775,18.256-2.775,27.509c0,9.256,0.935,18.514,2.775,27.512c1.794,8.783,4.476,17.414,7.97,25.675
		c3.425,8.092,7.663,15.905,12.596,23.211c4.888,7.224,10.495,14.021,16.671,20.198c6.176,6.182,12.974,11.789,20.201,16.674
		c7.302,4.934,15.116,9.174,23.213,12.599c8.255,3.489,16.892,6.17,25.669,7.967c8.998,1.843,18.256,2.778,27.515,2.778
		c9.253,0,18.511-0.935,27.509-2.778c8.777-1.797,17.414-4.478,25.669-7.967c8.098-3.425,15.905-7.665,23.214-12.599
		c7.227-4.885,14.024-10.492,20.201-16.674c6.176-6.177,11.784-12.974,16.671-20.198c4.934-7.306,9.172-15.119,12.596-23.211
		c3.495-8.26,6.171-16.892,7.97-25.675c1.84-8.997,2.774-18.256,2.774-27.512C-1492.341,240.039-1493.275,230.78-1495.115,221.783z
		 M-1512.315,248.122c-1.294-0.284-40.958-8.881-81.261-3.814c-0.818-2.003-1.654-4.005-2.513-6.031
		c-2.426-5.697-5.039-11.354-7.755-16.915c46.032-18.796,64.741-45.806,64.996-46.177
		C-1522.485,195.06-1512.588,220.439-1512.315,248.122z M-1551.892,161.738c-0.319,0.49-16.956,25.759-60.933,42.242
		c-19.934-36.617-41.835-65.71-43.611-68.058c8.818-2.13,18.018-3.292,27.492-3.292
		C-1599.405,132.63-1572.447,143.636-1551.892,161.738z M-1656.89,136.026c-0.006,0-0.017,0.012-0.017,0.012
		s-0.134,0.029-0.348,0.073C-1657.133,136.081-1657.011,136.06-1656.89,136.026z M-1678.721,143.775
		c1.585,2.13,23.144,31.364,43.321,67.226c-56.028,14.878-104.649,14.291-107.714,14.239
		C-1735.539,189.116-1711.257,159.149-1678.721,143.775z M-1745.61,249.292c0-1.236,0.058-2.464,0.093-3.698
		c2.055,0.049,59.702,1.361,119.776-16.616c3.344,6.548,6.536,13.186,9.473,19.823c-1.544,0.441-3.077,0.9-4.603,1.393
		c-62.959,20.346-94.891,77.006-94.891,77.006s0.035,0.044,0.052,0.058C-1734.291,306.6-1745.61,279.271-1745.61,249.292z
		 M-1628.945,365.951c-28.24,0-54.13-10.033-74.313-26.728c1.538,1.236,2.607,2.037,2.607,2.037s22.372-48.772,91.559-72.879
		c0.256-0.093,0.511-0.165,0.772-0.25c16.404,42.636,23.184,78.359,24.92,88.593
		C-1597.396,362.666-1612.785,365.951-1628.945,365.951z M-1563.757,346.055c-1.172-6.983-7.383-41.232-22.702-83.328
		c37.708-6.037,70.366,4.319,72.694,5.079C-1518.956,300.325-1537.566,328.374-1563.757,346.055z"/>
</g>
<g>
	
		<linearGradient id="SVGID_28_" gradientUnits="userSpaceOnUse" x1="-1362.0597" y1="399.3415" x2="-1795.9158" y2="-117.7081" gradientTransform="matrix(1 0 0 -1 -50 373)">
		<stop  offset="0" style="stop-color:#F1F1F2"/>
		<stop  offset="0.2424" style="stop-color:#D0D2D3"/>
		<stop  offset="0.7394" style="stop-color:#A6A8AB"/>
	</linearGradient>
	<path fill="url(#SVGID_28_)" d="M-1405.983-11.95c16.369,0,29.744,12.916,29.744,28.705v430.858
		c0,15.786-13.374,28.705-29.744,28.705h-446.032c-16.343,0-29.718-12.919-29.718-28.705V16.754
		c0-15.789,13.374-28.705,29.718-28.705L-1405.983-11.95L-1405.983-11.95z"/>
	<defs>
		
			<filter id="Adobe_OpacityMaskFilter_9_" filterUnits="userSpaceOnUse" x="-1881.733" y="-11.95" width="505.493" height="244.127">
			<feColorMatrix  type="matrix" values="1 0 0 0 0  0 1 0 0 0  0 0 1 0 0  0 0 0 1 0"/>
		</filter>
	</defs>
	<mask maskUnits="userSpaceOnUse" x="-1881.733" y="-11.95" width="505.493" height="244.127" id="SVGID_29_">
		<g filter="url(#Adobe_OpacityMaskFilter_9_)">
			
				<linearGradient id="SVGID_30_" gradientUnits="userSpaceOnUse" x1="-1499.8011" y1="156.6233" x2="-1103.0568" y2="960.1968" gradientTransform="matrix(1.3161 -0.3227 -0.2515 -1.0258 305.0245 239.5211)">
				<stop  offset="0.3636" style="stop-color:#000000"/>
				<stop  offset="1" style="stop-color:#F1F1F2"/>
			</linearGradient>
			<polygon fill="url(#SVGID_30_)" points="-1050.073,281.668 -1860.802,480.459 -2022.556,-179.204 -1211.824,-377.998 			"/>
		</g>
	</mask>
	<path mask="url(#SVGID_29_)" fill="#FFFFFF" d="M-1405.983-11.95h-446.032c-16.343,0-29.718,12.916-29.718,28.705v142.403
		c61.28,44.79,150.668,73.019,250.233,73.019c102.324,0,193.899-29.817,255.26-76.777V16.754
		C-1376.239,0.965-1389.613-11.95-1405.983-11.95z"/>
	<path fill="#929497" d="M-1478.387,246.886c0,38.654-31.337,69.994-70.009,69.994c-38.669,0-69.982-31.34-69.982-69.994
		c0-38.66,31.314-70,69.982-70C-1509.725,176.886-1478.387,208.226-1478.387,246.886z"/>
	<path fill="#929497" d="M-1632.859,246.886c0,38.654-31.314,69.994-70.009,69.994c-38.645,0-69.983-31.34-69.983-69.994
		c0-38.66,31.337-70,69.983-70C-1664.173,176.886-1632.859,208.226-1632.859,246.886z"/>
	
		<linearGradient id="SVGID_31_" gradientUnits="userSpaceOnUse" x1="-1575.1129" y1="132.0095" x2="-1435.121" y2="132.0095" gradientTransform="matrix(1 0 0 -1 -50 373)">
		<stop  offset="0" style="stop-color:#FF0082"/>
		<stop  offset="1" style="stop-color:#FF00A1"/>
	</linearGradient>
	<path fill="url(#SVGID_31_)" d="M-1485.121,240.994c0,38.654-31.337,69.994-70.009,69.994c-38.669,0-69.983-31.34-69.983-69.994
		c0-38.66,31.314-70,69.983-70C-1516.458,170.994-1485.121,202.334-1485.121,240.994z"/>
	
		<linearGradient id="SVGID_32_" gradientUnits="userSpaceOnUse" x1="-1729.584" y1="132.0095" x2="-1589.5919" y2="132.0095" gradientTransform="matrix(1 0 0 -1 -50 373)">
		<stop  offset="0" style="stop-color:#0066E6"/>
		<stop  offset="1" style="stop-color:#0094E6"/>
	</linearGradient>
	<path fill="url(#SVGID_32_)" d="M-1639.592,240.994c0,38.654-31.314,69.994-70.009,69.994c-38.645,0-69.983-31.34-69.983-69.994
		c0-38.66,31.337-70,69.983-70C-1670.907,170.994-1639.592,202.334-1639.592,240.994z"/>
</g>
<g>
	<defs>
		
			<filter id="Adobe_OpacityMaskFilter_10_" filterUnits="userSpaceOnUse" x="-1881.733" y="-8.586" width="505.493" height="244.128">
			<feColorMatrix  type="matrix" values="1 0 0 0 0  0 1 0 0 0  0 0 1 0 0  0 0 0 1 0"/>
		</filter>
	</defs>
	<mask maskUnits="userSpaceOnUse" x="-1881.733" y="-8.586" width="505.493" height="244.128" id="SVGID_33_">
		<g filter="url(#Adobe_OpacityMaskFilter_10_)">
			
				<linearGradient id="SVGID_34_" gradientUnits="userSpaceOnUse" x1="-1500.3893" y1="153.5288" x2="-1103.6453" y2="957.1022" gradientTransform="matrix(1.3161 -0.3227 -0.2515 -1.0258 305.0245 239.5211)">
				<stop  offset="0.3636" style="stop-color:#000000"/>
				<stop  offset="1" style="stop-color:#F1F1F2"/>
			</linearGradient>
			<polygon fill="url(#SVGID_34_)" points="-1050.067,285.032 -1860.8,483.823 -2022.554,-175.84 -1211.824,-374.634 			"/>
		</g>
	</mask>
	<path mask="url(#SVGID_33_)" fill="#FFFFFF" d="M-1405.983-8.586h-446.029c-16.346,0-29.721,12.916-29.721,28.705v142.404
		c61.281,44.79,150.669,73.019,250.233,73.019c102.327,0,193.904-29.817,255.26-76.777V20.118
		C-1376.239,4.329-1389.613-8.586-1405.983-8.586z"/>
	
		<linearGradient id="SVGID_35_" gradientUnits="userSpaceOnUse" x1="-1362.0597" y1="399.3414" x2="-1795.9155" y2="-117.7079" gradientTransform="matrix(1 0 0 -1 -50 373)">
		<stop  offset="0" style="stop-color:#909090"/>
		<stop  offset="0.2424" style="stop-color:#565656"/>
		<stop  offset="0.7394" style="stop-color:#282828"/>
	</linearGradient>
	<path fill="url(#SVGID_35_)" d="M-1405.983-11.95c16.369,0,29.744,12.916,29.744,28.705v430.858
		c0,15.786-13.374,28.705-29.744,28.705h-446.029c-16.346,0-29.721-12.919-29.721-28.705V16.754
		c0-15.789,13.374-28.705,29.721-28.705L-1405.983-11.95L-1405.983-11.95z"/>
	<path fill="#BF0000" d="M-1755.356-11.95h-96.656c-16.346,0-29.721,12.916-29.721,28.705v54.986h126.376V-11.95H-1755.356z"/>
	<rect x="-1755.356" y="-11.95" fill="#2482D9" width="126.37" height="83.691"/>
	<rect x="-1628.986" y="-11.95" fill="#00D437" width="126.376" height="83.691"/>
	<path fill="#FFED00" d="M-1405.983-11.95h-96.627v83.691h126.37V16.754C-1376.239,0.965-1389.613-11.95-1405.983-11.95z"/>
	<polygon fill="#3B3B3C" points="-1519.844,201.841 -1519.844,159.672 -1537.816,159.672 -1537.816,201.841 -1579.985,201.841 
		-1579.985,219.595 -1537.816,219.595 -1537.816,262.086 -1519.844,262.086 -1519.844,219.595 -1477.675,219.595 -1477.675,201.841 
			"/>
	<path fill="#3B3B3C" d="M-1595.66,325.018c-2.58-3.605-5.616-6.983-9.099-10.123c-3.486-3.149-7.024-6.301-10.617-9.459
		l-12.132-9.441c-1.803-1.579-3.706-3.437-5.729-5.573c-2.026-2.136-3.027-5.117-3.027-8.939c0-3.828,1.001-6.983,3.027-9.456
		c2.023-2.47,4.15-4.833,6.403-7.087c3.593-2.697,7.079-5.561,10.446-8.603c3.375-3.036,6.408-6.408,9.105-10.12
		c2.69-3.715,4.827-7.929,6.403-12.66c1.564-4.725,2.354-10.234,2.354-16.535c0-6.289-0.897-11.92-2.694-16.869
		c-1.805-4.954-3.933-9.276-6.4-12.988c-2.479-3.718-5.062-6.867-7.755-9.456c-2.696-2.583-5.056-4.661-7.082-6.246h20.9
		l21.574-11.79h-69.434c-9.206,0-19.15,1.12-29.822,3.367c-10.675,2.247-20.839,7.305-30.495,15.165
		c-7.195,6.289-12.585,13.426-16.181,21.399c-3.599,7.978-5.39,15.896-5.39,23.762c0,6.516,1.233,12.974,3.706,19.376
		c2.47,6.403,6.063,12.08,10.782,17.02c4.716,4.945,10.562,8.928,17.527,11.964c6.96,3.033,14.942,4.548,23.924,4.548
		c1.797,0,3.588-0.049,5.39-0.168c1.8-0.107,3.596-0.276,5.393-0.505c-0.894,2.026-1.678,3.991-2.357,5.9
		c-0.67,1.91-1.01,4.328-1.01,7.244c0,5.169,1.059,9.494,3.204,12.974c2.13,3.486,4.426,6.797,6.905,9.944
		c-3.819,0.221-8.312,0.563-13.476,1.007c-5.172,0.453-10.675,1.236-16.515,2.362c-5.845,1.117-11.746,2.638-17.696,4.548
		c-5.953,1.91-11.517,4.438-16.68,7.584c-9.891,5.834-16.683,12.634-20.389,20.389c-3.706,7.752-5.561,14.657-5.561,20.726
		c0,6.289,1.457,12.303,4.38,18.03c2.923,5.732,7.416,10.84,13.476,15.333c6.069,4.49,13.653,8.092,22.752,10.785
		c9.105,2.693,19.719,4.04,31.854,4.04c14.376,0,27.123-1.852,38.248-5.561c11.122-3.718,20.389-8.556,27.802-14.512
		c7.413-5.97,13.023-12.782,16.851-20.418c3.814-7.654,5.729-15.421,5.729-23.292c0-5.851-0.792-11.026-2.362-15.519
		C-1590.999,332.661-1593.077,328.615-1595.66,325.018z M-1659.525,266.843c-7.186,0-13.427-2.087-18.706-6.258
		c-5.283-4.174-9.662-9.305-13.142-15.388c-3.486-6.086-6.063-12.628-7.749-19.62c-1.689-6.986-2.528-13.302-2.528-18.938
		c0-4.51,0.508-8.902,1.512-13.186c1.016-4.287,2.978-8.234,5.898-11.845c2.696-3.378,6.179-6.081,10.452-8.112
		c4.263-2.029,8.643-3.048,13.142-3.048c6.96,0,13.087,2.09,18.372,6.26c5.271,4.165,9.709,9.41,13.307,15.734
		c3.593,6.307,6.289,13.072,8.092,20.288c1.788,7.209,2.696,13.856,2.696,19.945c0,3.161-0.456,7.105-1.353,11.836
		c-0.9,4.745-3.254,9.023-7.073,12.855c-2.702,2.708-6.127,4.96-10.28,6.768C-1651.044,265.937-1655.258,266.843-1659.525,266.843z
		 M-1622.278,392.041c-8.434,6.847-20.729,10.277-36.91,10.277c-18.198,0-32.637-3.825-43.307-11.459
		c-10.675-7.642-16.007-17.525-16.007-29.657c0-6.069,1.181-11.122,3.535-15.165c2.365-4.049,5.108-7.416,8.255-10.118
		c3.149-2.694,6.353-4.769,9.613-6.232c3.251-1.466,5.782-2.525,7.578-3.199c3.593-1.123,7.302-2.078,11.128-2.864
		c3.814-0.793,7.413-1.35,10.782-1.692c3.367-0.331,6.289-0.563,8.765-0.671c2.461-0.113,4.043-0.168,4.711-0.168
		c1.8,0,3.204,0,4.214,0c1.013,0,2.191,0.113,3.538,0.337c6.289,4.493,11.796,8.542,16.512,12.135
		c4.725,3.593,8.539,7.073,11.461,10.446c2.914,3.37,5.105,6.795,6.571,10.28c1.457,3.48,2.192,7.358,2.192,11.624
		C-1609.647,376.478-1613.856,385.18-1622.278,392.041z"/>
	<polygon fill="#FFFFFF" points="-1527.135,195.461 -1527.135,153.292 -1545.103,153.292 -1545.103,195.461 -1587.272,195.461 
		-1587.272,213.218 -1545.103,213.218 -1545.103,255.709 -1527.135,255.709 -1527.135,213.218 -1484.963,213.218 -1484.963,195.461 
			"/>
	<path fill="#FFFFFF" d="M-1602.948,318.645c-2.583-3.608-5.619-6.989-9.099-10.129c-3.486-3.149-7.024-6.301-10.62-9.456
		l-12.129-9.441c-1.802-1.576-3.709-3.44-5.732-5.576c-2.02-2.133-3.027-5.111-3.027-8.939c0-3.825,1.007-6.978,3.027-9.456
		c2.023-2.467,4.156-4.83,6.403-7.087c3.596-2.694,7.082-5.558,10.452-8.6c3.373-3.033,6.406-6.408,9.102-10.121
		c2.688-3.712,4.827-7.929,6.403-12.66c1.561-4.725,2.357-10.237,2.357-16.538c0-6.289-0.9-11.917-2.696-16.869
		c-1.803-4.951-3.933-9.273-6.403-12.985c-2.473-3.721-5.059-6.867-7.755-9.459c-2.694-2.58-5.056-4.658-7.079-6.243h20.897
		l21.577-11.793h-69.431c-9.212,0-19.15,1.126-29.828,3.367c-10.672,2.253-20.839,7.308-30.495,15.168
		c-7.192,6.289-12.585,13.426-16.178,21.399c-3.599,7.978-5.39,15.893-5.39,23.762c0,6.513,1.231,12.974,3.706,19.373
		c2.467,6.403,6.063,12.086,10.782,17.023c4.719,4.943,10.559,8.928,17.528,11.961c6.963,3.036,14.941,4.548,23.927,4.548
		c1.797,0,3.587-0.049,5.39-0.168c1.796-0.107,3.593-0.276,5.389-0.502c-0.891,2.023-1.674,3.988-2.357,5.9
		c-0.671,1.91-1.013,4.328-1.013,7.241c0,5.172,1.065,9.494,3.204,12.974c2.133,3.492,4.432,6.8,6.908,9.949
		c-3.822,0.221-8.316,0.557-13.479,1.004c-5.169,0.45-10.672,1.236-16.509,2.362c-5.851,1.117-11.752,2.638-17.699,4.548
		c-5.95,1.91-11.52,4.435-16.683,7.581c-9.889,5.839-16.68,12.637-20.39,20.389c-3.703,7.752-5.558,14.657-5.558,20.726
		c0,6.289,1.46,12.303,4.38,18.035c2.923,5.727,7.413,10.835,13.476,15.328c6.069,4.493,13.653,8.092,22.749,10.788
		c9.105,2.697,19.725,4.037,31.857,4.037c14.376,0,27.123-1.852,38.251-5.558c11.119-3.721,20.384-8.559,27.799-14.515
		c7.416-5.967,13.023-12.776,16.851-20.418c3.814-7.651,5.729-15.418,5.729-23.289c0-5.848-0.79-11.029-2.363-15.519
		C-1598.287,326.284-1600.365,322.238-1602.948,318.645z M-1666.813,260.463c-7.189,0-13.43-2.084-18.706-6.258
		c-5.282-4.171-9.662-9.302-13.142-15.385c-3.489-6.089-6.063-12.629-7.747-19.62c-1.689-6.986-2.534-13.302-2.534-18.938
		c0-4.51,0.511-8.902,1.515-13.186c1.019-4.284,2.978-8.231,5.901-11.845c2.696-3.381,6.176-6.083,10.446-8.11
		c4.267-2.029,8.646-3.047,13.145-3.047c6.963,0,13.087,2.084,18.369,6.257c5.274,4.165,9.709,9.412,13.31,15.731
		c3.593,6.307,6.289,13.075,8.092,20.288c1.791,7.212,2.694,13.859,2.694,19.948c0,3.161-0.453,7.105-1.35,11.836
		c-0.9,4.743-3.254,9.021-7.076,12.855c-2.702,2.708-6.124,4.957-10.277,6.768C-1658.332,259.561-1662.549,260.463-1666.813,260.463
		z M-1629.569,385.661c-8.431,6.85-20.729,10.28-36.904,10.28c-18.204,0-32.64-3.825-43.307-11.462
		c-10.678-7.639-16.01-17.522-16.01-29.654c0-6.069,1.178-11.119,3.535-15.168c2.362-4.043,5.108-7.41,8.257-10.112
		c3.146-2.696,6.35-4.771,9.613-6.234c3.248-1.463,5.782-2.528,7.578-3.199c3.59-1.126,7.297-2.078,11.125-2.865
		c3.814-0.789,7.416-1.352,10.783-1.689c3.367-0.334,6.289-0.566,8.762-0.671c2.464-0.116,4.049-0.174,4.714-0.174
		c1.796,0,3.204,0,4.217,0c1.01,0,2.191,0.116,3.535,0.342c6.289,4.49,11.792,8.536,16.512,12.129
		c4.722,3.596,8.539,7.076,11.462,10.452c2.914,3.367,5.108,6.789,6.571,10.274c1.457,3.486,2.191,7.361,2.191,11.627
		C-1616.935,370.099-1621.146,378.803-1629.569,385.661z"/>
</g>
<g>
	<g>
		
			<linearGradient id="SVGID_36_" gradientUnits="userSpaceOnUse" x1="-1362.0588" y1="399.3419" x2="-1795.9158" y2="-117.7086" gradientTransform="matrix(1 0 0 -1 -50 373)">
			<stop  offset="0" style="stop-color:#6198D0"/>
			<stop  offset="0.503" style="stop-color:#3E5B99"/>
			<stop  offset="1" style="stop-color:#2C4983"/>
		</linearGradient>
		<path fill="url(#SVGID_36_)" d="M-1405.983-11.952c16.37,0,29.744,12.918,29.744,28.705v430.86
			c0,15.786-13.374,28.705-29.744,28.705h-446.032c-16.343,0-29.718-12.919-29.718-28.705V16.753
			c0-15.786,13.374-28.705,29.718-28.705H-1405.983z"/>
	</g>
	<path id="Facebook_4_" fill="#2C4A86" d="M-1661.961,184.842c0,6.914,0,37.778,0,37.778h-27.68v46.201h27.68v126.774h56.858V268.82
		h38.149c0,0,3.576-22.151,5.303-46.375c-4.966,0-43.237,0-43.237,0s0-26.876,0-31.584c0-4.719,6.197-11.073,12.327-11.073
		c6.115,0,19.025,0,30.977,0c0-6.292,0-28.023,0-48.096c-15.96,0-34.118,0-42.117,0
		C-1663.366,131.694-1661.961,177.938-1661.961,184.842z"/>
	<path id="Facebook_3_" fill="#FFFFFF" d="M-1668.707,178.94c0,6.913,0,37.778,0,37.778h-27.68v46.2h27.68v126.774h56.858V262.918
		h38.149c0,0,3.574-22.151,5.302-46.375c-4.967,0-43.238,0-43.238,0s0-26.876,0-31.584c0-4.719,6.198-11.073,12.327-11.073
		c6.115,0,19.025,0,30.977,0c0-6.292,0-28.023,0-48.096c-15.959,0-34.116,0-42.117,0
		C-1670.113,125.792-1668.707,172.035-1668.707,178.94z"/>
	<defs>
		
			<filter id="Adobe_OpacityMaskFilter_11_" filterUnits="userSpaceOnUse" x="-1881.733" y="-8.58" width="505.493" height="244.136">
			<feColorMatrix  type="matrix" values="1 0 0 0 0  0 1 0 0 0  0 0 1 0 0  0 0 0 1 0"/>
		</filter>
	</defs>
	<mask maskUnits="userSpaceOnUse" x="-1881.733" y="-8.58" width="505.493" height="244.136" id="SVGID_37_">
		<g filter="url(#Adobe_OpacityMaskFilter_11_)">
			
				<linearGradient id="SVGID_38_" gradientUnits="userSpaceOnUse" x1="-1500.3951" y1="153.5162" x2="-1103.6489" y2="957.0933" gradientTransform="matrix(1.3161 -0.3227 -0.2515 -1.0258 305.0245 239.5211)">
				<stop  offset="0.3636" style="stop-color:#000000"/>
				<stop  offset="1" style="stop-color:#F1F1F2"/>
			</linearGradient>
			<polygon fill="url(#SVGID_38_)" points="-1050.071,285.046 -1860.802,483.838 -2022.556,-175.833 -1211.825,-374.625 			"/>
		</g>
	</mask>
	<path mask="url(#SVGID_37_)" fill="#FFFFFF" d="M-1405.983-8.58h-446.032c-16.343,0-29.718,12.919-29.718,28.705v142.412
		c61.28,44.787,150.668,73.019,250.233,73.019c102.324,0,193.899-29.818,255.26-76.779V20.125
		C-1376.239,4.339-1389.613-8.58-1405.983-8.58z"/>
</g>
<g>
	
		<linearGradient id="SVGID_39_" gradientUnits="userSpaceOnUse" x1="-1362.0588" y1="399.3411" x2="-1795.9154" y2="-117.709" gradientTransform="matrix(1 0 0 -1 -50 373)">
		<stop  offset="0" style="stop-color:#F8BCA8"/>
		<stop  offset="0.2909" style="stop-color:#EA2227"/>
		<stop  offset="0.9636" style="stop-color:#A21E22"/>
	</linearGradient>
	<path fill="url(#SVGID_39_)" d="M-1405.983-11.952c16.369,0,29.744,12.921,29.744,28.705v430.861
		c0,15.786-13.374,28.705-29.744,28.705h-446.029c-16.346,0-29.721-12.919-29.721-28.705V16.753
		c0-15.783,13.374-28.705,29.721-28.705H-1405.983z"/>
	<path fill="#AC1F25" d="M-1618.763,115.089c-79.781,0-120.014,57.186-120.014,104.884c0,28.885,10.936,54.577,34.388,64.155
		c3.849,1.573,7.297,0.052,8.405-4.203c0.778-2.949,2.612-10.385,3.437-13.479c1.12-4.208,0.685-5.689-2.415-9.357
		c-6.763-7.976-11.087-18.308-11.087-32.931c0-42.439,31.752-80.423,82.678-80.423c45.092,0,69.867,27.553,69.867,64.349
		c0,48.418-21.426,89.284-53.236,89.284c-17.571,0-30.719-14.529-26.505-32.35c5.05-21.275,14.826-44.227,14.826-59.586
		c0-13.746-7.378-25.21-22.644-25.21c-17.96,0-32.385,18.581-32.385,43.466c0,15.847,5.352,26.574,5.352,26.574
		s-18.378,77.866-21.594,91.501c-6.42,27.155-0.969,60.451-0.505,63.812c0.273,1.991,2.827,2.461,3.988,0.958
		c1.66-2.159,23.045-28.565,30.319-54.948c2.061-7.471,11.813-46.16,11.813-46.16c5.834,11.128,22.882,20.932,41.017,20.932
		c53.984,0,90.607-49.213,90.607-115.08C-1512.454,161.464-1554.644,115.089-1618.763,115.089z"/>
	<path fill="#FFFFFF" d="M-1625.497,109.185c-79.781,0-120.014,57.201-120.014,104.896c0,28.885,10.936,54.577,34.388,64.155
		c3.849,1.573,7.297,0.052,8.405-4.202c0.778-2.949,2.612-10.385,3.437-13.479c1.12-4.208,0.685-5.689-2.415-9.357
		c-6.763-7.976-11.087-18.308-11.087-32.931c0-42.439,31.752-80.423,82.678-80.423c45.092,0,69.867,27.555,69.867,64.349
		c0,48.418-21.426,89.284-53.236,89.284c-17.571,0-30.719-14.53-26.505-32.35c5.05-21.275,14.826-44.227,14.826-59.586
		c0-13.746-7.378-25.21-22.645-25.21c-17.96,0-32.385,18.581-32.385,43.466c0,15.847,5.352,26.574,5.352,26.574
		s-18.378,77.866-21.594,91.501c-6.42,27.155-0.969,60.451-0.505,63.812c0.273,1.991,2.827,2.461,3.988,0.958
		c1.66-2.159,23.045-28.565,30.319-54.948c2.061-7.471,11.813-46.16,11.813-46.16c5.834,11.128,22.883,20.932,41.017,20.932
		c53.985,0,90.607-49.213,90.607-115.08C-1519.188,155.572-1561.377,109.185-1625.497,109.185z"/>
	<defs>
		
			<filter id="Adobe_OpacityMaskFilter_12_" filterUnits="userSpaceOnUse" x="-1881.733" y="-8.579" width="505.493" height="244.13">
			<feColorMatrix  type="matrix" values="1 0 0 0 0  0 1 0 0 0  0 0 1 0 0  0 0 0 1 0"/>
		</filter>
	</defs>
	<mask maskUnits="userSpaceOnUse" x="-1881.733" y="-8.579" width="505.493" height="244.13" id="SVGID_40_">
		<g filter="url(#Adobe_OpacityMaskFilter_12_)">
			
				<linearGradient id="SVGID_41_" gradientUnits="userSpaceOnUse" x1="-1500.3915" y1="153.5197" x2="-1103.6475" y2="957.093" gradientTransform="matrix(1.3161 -0.3227 -0.2515 -1.0258 305.0245 239.5211)">
				<stop  offset="0.3636" style="stop-color:#000000"/>
				<stop  offset="1" style="stop-color:#F1F1F2"/>
			</linearGradient>
			<polygon fill="url(#SVGID_41_)" points="-1050.067,285.042 -1860.8,483.833 -2022.554,-175.833 -1211.824,-374.624 			"/>
		</g>
	</mask>
	<path mask="url(#SVGID_40_)" fill="#FFFFFF" d="M-1405.983-8.579h-446.029c-16.346,0-29.721,12.919-29.721,28.708v142.404
		c61.281,44.79,150.669,73.018,250.233,73.018c102.327,0,193.904-29.816,255.26-76.777V20.128
		C-1376.239,4.339-1389.613-8.579-1405.983-8.579z"/>
</g>
<g>
	
		<linearGradient id="SVGID_42_" gradientUnits="userSpaceOnUse" x1="-1362.0598" y1="399.3416" x2="-1795.9161" y2="-117.7083" gradientTransform="matrix(1 0 0 -1 -50 373)">
		<stop  offset="0" style="stop-color:#FDDB8A"/>
		<stop  offset="0.2909" style="stop-color:#FAB117"/>
		<stop  offset="0.9636" style="stop-color:#B86F29"/>
	</linearGradient>
	<path fill="url(#SVGID_42_)" d="M-1405.983-11.95c16.369,0,29.744,12.916,29.744,28.705v430.858
		c0,15.786-13.374,28.705-29.744,28.705h-446.035c-16.34,0-29.715-12.919-29.715-28.705V16.754
		c0-15.789,13.374-28.705,29.715-28.705L-1405.983-11.95L-1405.983-11.95z"/>
	<path id="RSS_3_" fill="#C47B2A" d="M-1693.414,317.178c6.002,5.999,9.665,14.14,9.683,23.205
		c-0.018,9.044-3.68,17.188-9.659,23.164l-0.023,0.012c-5.99,5.967-14.187,9.618-23.294,9.618c-9.096,0-17.269-3.663-23.266-9.63
		c-5.973-5.976-9.659-14.105-9.659-23.164c0-9.064,3.686-17.226,9.659-23.213v0.009c5.996-5.973,14.17-9.654,23.266-9.654
		C-1707.6,307.524-1699.421,311.21-1693.414,317.178z M-1693.414,317.169v0.009c0.012,0,0.012,0,0.012,0L-1693.414,317.169z
		 M-1739.974,363.558c0,0,0,0,0-0.012c-0.012,0-0.012,0-0.012,0L-1739.974,363.558z M-1749.604,209.794v47.359
		c30.916,0.018,60.161,12.164,82.039,34.083c21.884,21.846,33.976,51.132,34.028,82.155h0.018v0.087h47.547
		c-0.035-45.109-18.372-85.975-48.017-115.643C-1663.641,228.172-1704.489,209.824-1749.604,209.794z M-1749.523,125.457v47.338
		c110.518,0.081,200.365,90.061,200.44,200.684h47.472c-0.029-68.369-27.822-130.315-72.734-175.255
		C-1619.269,153.294-1681.177,125.488-1749.523,125.457z"/>
	<path id="RSS_2_" fill="#FFFFFF" d="M-1700.147,311.274c6.002,6.002,9.665,14.14,9.682,23.207
		c-0.017,9.044-3.68,17.188-9.659,23.161l-0.023,0.012c-5.991,5.97-14.187,9.619-23.295,9.619c-9.096,0-17.269-3.66-23.266-9.63
		c-5.973-5.973-9.659-14.106-9.659-23.161c0-9.067,3.686-17.228,9.659-23.213v0.006c5.996-5.973,14.17-9.651,23.266-9.651
		C-1714.334,301.624-1706.155,305.307-1700.147,311.274z M-1700.147,311.268v0.006c0.012,0,0.012,0,0.012,0L-1700.147,311.268z
		 M-1746.707,357.654c0,0,0,0,0-0.012c-0.012,0-0.012,0-0.012,0L-1746.707,357.654z M-1756.337,203.891v47.361
		c30.916,0.018,60.161,12.161,82.039,34.08c21.884,21.849,33.975,51.135,34.028,82.155h0.018v0.09h47.547
		c-0.035-45.112-18.372-85.978-48.017-115.646C-1670.374,222.272-1711.222,203.92-1756.337,203.891z M-1756.256,119.556v47.335
		c110.518,0.081,200.364,90.061,200.44,200.686h47.472c-0.029-68.369-27.822-130.315-72.734-175.256
		C-1626.002,147.393-1687.91,119.588-1756.256,119.556z"/>
	<defs>
		
			<filter id="Adobe_OpacityMaskFilter_13_" filterUnits="userSpaceOnUse" x="-1881.733" y="-8.581" width="505.493" height="244.127">
			<feColorMatrix  type="matrix" values="1 0 0 0 0  0 1 0 0 0  0 0 1 0 0  0 0 0 1 0"/>
		</filter>
	</defs>
	<mask maskUnits="userSpaceOnUse" x="-1881.733" y="-8.581" width="505.493" height="244.127" id="SVGID_43_">
		<g filter="url(#Adobe_OpacityMaskFilter_13_)">
			
				<linearGradient id="SVGID_44_" gradientUnits="userSpaceOnUse" x1="-1500.3933" y1="153.525" x2="-1103.6492" y2="957.0982" gradientTransform="matrix(1.3161 -0.3227 -0.2515 -1.0258 305.0245 239.5211)">
				<stop  offset="0.3636" style="stop-color:#000000"/>
				<stop  offset="1" style="stop-color:#F1F1F2"/>
			</linearGradient>
			<polygon fill="url(#SVGID_44_)" points="-1050.073,285.038 -1860.801,483.829 -2022.557,-175.834 -1211.824,-374.629 			"/>
		</g>
	</mask>
	<path mask="url(#SVGID_43_)" fill="#FFFFFF" d="M-1405.983-8.581h-446.035c-16.34,0-29.715,12.916-29.715,28.705v142.403
		c61.281,44.79,150.669,73.019,250.233,73.019c102.321,0,193.898-29.817,255.26-76.777V20.124
		C-1376.239,4.335-1389.613-8.581-1405.983-8.581z"/>
</g>
<g>
	
		<linearGradient id="SVGID_45_" gradientUnits="userSpaceOnUse" x1="522.9269" y1="375.5253" x2="89.0702" y2="-141.525" gradientTransform="matrix(1 0 0 -1 -50 373)">
		<stop  offset="0" style="stop-color:#C3E7F9"/>
		<stop  offset="0.2909" style="stop-color:#4EC3F0"/>
		<stop  offset="0.9636" style="stop-color:#156CB4"/>
	</linearGradient>
	<path fill="url(#SVGID_45_)" d="M479.003,11.865c16.369,0,29.744,12.918,29.744,28.705V471.43
		c0,15.783-13.374,28.705-29.744,28.705H32.971c-16.343,0-29.718-12.922-29.718-28.705V40.57c0-15.786,13.374-28.705,29.718-28.705
		H479.003z"/>
	<defs>
		<filter id="Adobe_OpacityMaskFilter_14_" filterUnits="userSpaceOnUse" x="3.253" y="15.238" width="505.493" height="244.136">
			<feColorMatrix  type="matrix" values="1 0 0 0 0  0 1 0 0 0  0 0 1 0 0  0 0 0 1 0"/>
		</filter>
	</defs>
	<mask maskUnits="userSpaceOnUse" x="3.253" y="15.238" width="505.493" height="244.136" id="SVGID_46_">
		<g filter="url(#Adobe_OpacityMaskFilter_14_)">
			
				<linearGradient id="SVGID_47_" gradientUnits="userSpaceOnUse" x1="-153.547" y1="-293.3963" x2="243.1986" y2="510.1797" gradientTransform="matrix(1.3161 -0.3227 -0.2515 -1.0258 305.0245 239.5211)">
				<stop  offset="0.3636" style="stop-color:#000000"/>
				<stop  offset="1" style="stop-color:#F1F1F2"/>
			</linearGradient>
			<polygon fill="url(#SVGID_47_)" points="834.913,308.862 24.184,507.653 -137.57,-152.016 673.162,-350.807 			"/>
		</g>
	</mask>
	<path mask="url(#SVGID_46_)" fill="#FFFFFF" d="M479.003,15.238H32.971c-16.343,0-29.718,12.919-29.718,28.705v142.412
		c61.28,44.787,150.668,73.019,250.233,73.019c102.324,0,193.899-29.816,255.26-76.777V43.942
		C508.747,28.156,495.373,15.238,479.003,15.238z"/>
	<path fill="#3388C6" d="M407.379,187.245c-10.465,4.641-21.711,7.781-33.518,9.189c12.048-7.221,21.302-18.657,25.661-32.283
		c-11.277,6.684-23.768,11.543-37.061,14.161c-10.646-11.343-25.811-18.43-42.597-18.43c-32.228,0-58.359,26.127-58.359,58.358
		c0,4.574,0.515,9.024,1.512,13.296c-48.502-2.435-91.504-25.666-120.287-60.974c-5.024,8.623-7.902,18.642-7.902,29.34
		c0,20.244,10.302,38.109,25.962,48.572c-9.566-0.299-18.565-2.923-26.432-7.3c-0.006,0.247-0.006,0.493-0.006,0.737
		c0,28.272,20.115,51.857,46.814,57.224c-4.898,1.332-10.054,2.049-15.375,2.049c-3.762,0-7.417-0.369-10.98-1.051
		c7.426,23.184,28.978,40.059,54.516,40.526c-19.974,15.655-45.137,24.984-72.48,24.984c-4.709,0-9.356-0.276-13.92-0.813
		c25.825,16.555,56.502,26.217,89.458,26.217c107.342,0,166.042-88.924,166.042-166.041c0-2.531-0.057-5.05-0.168-7.555
		C389.663,209.228,399.556,198.951,407.379,187.245z"/>
	<path fill="#FFFFFF" d="M401.72,182.4c-10.465,4.644-21.711,7.781-33.518,9.192c12.048-7.224,21.302-18.659,25.661-32.286
		c-11.277,6.684-23.768,11.546-37.061,14.161c-10.646-11.343-25.811-18.427-42.597-18.427c-32.228,0-58.359,26.127-58.359,58.356
		c0,4.574,0.515,9.026,1.512,13.299c-48.502-2.435-91.504-25.669-120.287-60.977c-5.024,8.623-7.902,18.642-7.902,29.343
		c0,20.244,10.302,38.106,25.962,48.572c-9.566-0.302-18.565-2.926-26.432-7.3c-0.006,0.244-0.006,0.491-0.006,0.737
		c0,28.272,20.115,51.857,46.814,57.224c-4.898,1.332-10.054,2.046-15.375,2.046c-3.762,0-7.417-0.366-10.98-1.048
		c7.426,23.184,28.978,40.059,54.516,40.526c-19.974,15.653-45.137,24.981-72.48,24.981c-4.709,0-9.356-0.276-13.92-0.813
		c25.825,16.555,56.502,26.22,89.458,26.22c107.342,0,166.042-88.927,166.042-166.044c0-2.531-0.057-5.047-0.169-7.552
		C384.003,204.384,393.896,194.109,401.72,182.4z"/>
</g>
</svg>
